<svg xmlns="http://www.w3.org/2000/svg" viewBox="0 0 158 158">
    <path d="M 15.64 147.496 L 15.64 10.51 L 142.356 10.51 L 142.356 146.232 L 130.506 146.232 L 130.506 21.57 L 27.174 21.57 L 27.174 147.496 L 15.64 147.496 Z M 72.046 104.678 L 72.046 26.468 L 82.316 26.468 L 82.316 105.942 Q 82.316 108.786 82.869 110.682 Q 83.422 112.578 84.686 113.21 Q 86.898 113.842 90.69 113.842 L 96.141 113.842 L 102.224 113.842 Q 104.278 113.842 106.49 113.763 Q 108.702 113.684 109.65 113.526 Q 110.598 113.21 111.783 112.499 Q 112.968 111.788 113.442 110.682 Q 113.758 109.576 114.074 106.732 Q 114.39 103.888 114.548 100.254 Q 116.286 101.676 118.814 102.861 Q 121.342 104.046 123.87 104.836 Q 123.554 108.47 123.001 112.183 Q 122.448 115.896 121.342 117.634 Q 120.394 119.372 118.735 120.478 Q 117.076 121.584 114.706 122.058 Q 112.652 122.532 109.334 122.848 Q 106.016 123.164 103.014 123.164 L 98.906 123.164 L 93.297 123.164 L 89.11 123.164 Q 86.108 123.164 82.711 122.532 Q 79.314 121.9 76.944 120.636 Q 74.416 119.214 73.231 116.133 Q 72.046 113.052 72.046 104.678 Z M 21.17 140.07 L 21.17 128.852 L 137.142 128.852 L 137.142 140.07 L 21.17 140.07 Z M 110.914 32.946 L 117.55 41.478 Q 109.966 43.216 100.407 44.717 Q 90.848 46.218 80.183 47.245 Q 69.518 48.272 58.695 48.983 Q 47.872 49.694 37.918 50.01 Q 37.76 48.272 36.97 45.823 Q 36.18 43.374 35.232 41.478 Q 45.028 41.004 55.535 40.214 Q 66.042 39.424 76.312 38.318 Q 86.582 37.212 95.509 35.869 Q 104.436 34.526 110.914 32.946 Z M 47.082 92.512 L 47.082 83.032 L 107.754 83.032 L 107.754 92.512 L 47.082 92.512 Z M 41.868 101.518 L 41.868 56.488 L 51.664 56.488 L 51.664 101.518 L 41.868 101.518 Z M 103.33 97.568 L 103.33 56.488 L 113.442 56.488 L 113.442 97.568 L 103.33 97.568 Z" fill="black"/>
</svg>
